<?xml version="1.0" encoding="utf-8"?>
<!-- Generator: Adobe Illustrator 19.2.1, SVG Export Plug-In . SVG Version: 6.00 Build 0)  -->
<svg version="1.1" id="Слой_1" xmlns="http://www.w3.org/2000/svg" xmlns:xlink="http://www.w3.org/1999/xlink" x="0px" y="0px"
	 viewBox="0 0 347.6 95.9" style="enable-background:new 0 0 347.6 95.9;" xml:space="preserve">
<style type="text/css">
	.st0{clip-path:url(#SVGID_2_);fill:#FFFFFF;}
</style>
<g>
	<defs>
		<rect id="SVGID_1_" y="0" width="347.6" height="95.9"/>
	</defs>
	<clipPath id="SVGID_2_">
		<use xlink:href="#SVGID_1_"  style="overflow:visible;"/>
	</clipPath>
	<path class="st0" d="M109.5,57.8c-4.1,0-7.4-3.3-7.4-7.4c0-4.1,3.3-7.4,7.4-7.4c4.1,0,7.4,3.3,7.4,7.4
		C116.9,54.5,113.6,57.8,109.5,57.8"/>
	<path class="st0" d="M106,76.7c-4.1,0-7.4-3.3-7.4-7.4c0-4.1,3.3-7.4,7.4-7.4c4.1,0,7.4,3.3,7.4,7.4
		C113.4,73.4,110.1,76.7,106,76.7"/>
	<path class="st0" d="M102.7,95.9c-4.1,0-7.4-3.3-7.4-7.4c0-4.1,3.3-7.4,7.4-7.4c4.1,0,7.4,3.3,7.4,7.4
		C110.1,92.6,106.8,95.9,102.7,95.9"/>
	<path class="st0" d="M112.9,38.8c-4.1,0-7.4-3.3-7.4-7.4c0-4.1,3.3-7.4,7.4-7.4c4.1,0,7.4,3.3,7.4,7.4
		C120.4,35.5,117,38.8,112.9,38.8"/>
	<path class="st0" d="M132,38.8c-4.1,0-7.4-3.3-7.4-7.4c0-4.1,3.3-7.4,7.4-7.4c4.1,0,7.4,3.3,7.4,7.4
		C139.5,35.5,136.1,38.8,132,38.8"/>
	<path class="st0" d="M93.8,24c-4.1,0-7.4,3.3-7.4,7.4c0,4.1,3.3,7.4,7.4,7.4c4.1,0,7.4-3.3,7.4-7.4C101.2,27.3,97.9,24,93.8,24
		 M93.8,34.9c-1.9,0-3.4-1.5-3.4-3.4c0-1.9,1.5-3.4,3.4-3.4c1.9,0,3.4,1.5,3.4,3.4C97.2,33.3,95.7,34.9,93.8,34.9"/>
	<path class="st0" d="M329.3,81.1c-4.1,0-7.4,3.3-7.4,7.4c0,4.1,3.3,7.4,7.4,7.4c4.1,0,7.4-3.3,7.4-7.4
		C336.8,84.4,333.4,81.1,329.3,81.1 M329.3,91.9c-1.9,0-3.4-1.5-3.4-3.4c0-1.9,1.5-3.4,3.4-3.4c1.9,0,3.4,1.5,3.4,3.4
		C332.8,90.4,331.2,91.9,329.3,91.9"/>
	<path class="st0" d="M298.5,57.8c-4.1,0-7.4-3.3-7.4-7.4c0-4.1,3.3-7.4,7.4-7.4c4.1,0,7.4,3.3,7.4,7.4
		C305.9,54.5,302.6,57.8,298.5,57.8"/>
	<path class="st0" d="M295,76.7c-4.1,0-7.4-3.3-7.4-7.4c0-4.1,3.3-7.4,7.4-7.4c4.1,0,7.4,3.3,7.4,7.4
		C302.4,73.4,299.1,76.7,295,76.7"/>
	<path class="st0" d="M291.1,95.9c-4.1,0-7.4-3.3-7.4-7.4c0-4.1,3.3-7.4,7.4-7.4c4.1,0,7.4,3.3,7.4,7.4
		C298.5,92.6,295.2,95.9,291.1,95.9"/>
	<path class="st0" d="M301.9,38.8c-4.1,0-7.4-3.3-7.4-7.4c0-4.1,3.3-7.4,7.4-7.4c4.1,0,7.4,3.3,7.4,7.4
		C309.4,35.5,306,38.8,301.9,38.8"/>
	<path class="st0" d="M336.8,57.8c-4.1,0-7.4-3.3-7.4-7.4c0-4.1,3.3-7.4,7.4-7.4c4.1,0,7.4,3.3,7.4,7.4
		C344.2,54.5,340.9,57.8,336.8,57.8"/>
	<path class="st0" d="M333.2,76.7c-4.1,0-7.4-3.3-7.4-7.4c0-4.1,3.3-7.4,7.4-7.4c4.1,0,7.4,3.3,7.4,7.4
		C340.7,73.4,337.3,76.7,333.2,76.7"/>
	<path class="st0" d="M340.2,38.8c-4.1,0-7.4-3.3-7.4-7.4c0-4.1,3.3-7.4,7.4-7.4c4.1,0,7.4,3.3,7.4,7.4
		C347.6,35.5,344.3,38.8,340.2,38.8"/>
	<path class="st0" d="M321,38.8c-4.1,0-7.4-3.3-7.4-7.4c0-4.1,3.3-7.4,7.4-7.4c4.1,0,7.4,3.3,7.4,7.4
		C328.5,35.5,325.1,38.8,321,38.8"/>
	<path class="st0" d="M220.1,57.8c-4.1,0-7.4-3.3-7.4-7.4c0-4.1,3.3-7.4,7.4-7.4c4.1,0,7.4,3.3,7.4,7.4
		C227.5,54.5,224.2,57.8,220.1,57.8"/>
	<path class="st0" d="M216.6,76.7c-4.1,0-7.4-3.3-7.4-7.4c0-4.1,3.3-7.4,7.4-7.4c4.1,0,7.4,3.3,7.4,7.4
		C224,73.4,220.7,76.7,216.6,76.7"/>
	<path class="st0" d="M212.7,95.9c-4.1,0-7.4-3.3-7.4-7.4c0-4.1,3.3-7.4,7.4-7.4c4.1,0,7.4,3.3,7.4,7.4
		C220.1,92.6,216.8,95.9,212.7,95.9"/>
	<path class="st0" d="M223.5,38.8c-4.1,0-7.4-3.3-7.4-7.4c0-4.1,3.3-7.4,7.4-7.4c4.1,0,7.4,3.3,7.4,7.4
		C231,35.5,227.6,38.8,223.5,38.8"/>
	<path class="st0" d="M275.5,38.8c-4.1,0-7.4-3.3-7.4-7.4c0-4.1,3.3-7.4,7.4-7.4c4.1,0,7.4,3.3,7.4,7.4
		C282.9,35.5,279.6,38.8,275.5,38.8"/>
	<path class="st0" d="M271.9,57.8c-4.1,0-7.4-3.3-7.4-7.4c0-4.1,3.3-7.4,7.4-7.4c4.1,0,7.4,3.3,7.4,7.4
		C279.3,54.5,276,57.8,271.9,57.8"/>
	<path class="st0" d="M268.3,76.7c-4.1,0-7.4-3.3-7.4-7.4c0-4.1,3.3-7.4,7.4-7.4c4.1,0,7.4,3.3,7.4,7.4
		C275.7,73.4,272.4,76.7,268.3,76.7"/>
	<path class="st0" d="M264.5,95.9c-4.1,0-7.4-3.3-7.4-7.4c0-4.1,3.3-7.4,7.4-7.4c4.1,0,7.4,3.3,7.4,7.4
		C271.9,92.6,268.6,95.9,264.5,95.9"/>
	<path class="st0" d="M235.2,70.3c-4.1,0-7.4-3.3-7.4-7.4c0-4.1,3.3-7.4,7.4-7.4c4.1,0,7.4,3.3,7.4,7.4
		C242.6,67,239.3,70.3,235.2,70.3"/>
	<path class="st0" d="M253.4,64.1c-4.1,0-7.4-3.3-7.4-7.4c0-4.1,3.3-7.4,7.4-7.4c4.1,0,7.4,3.3,7.4,7.4
		C260.9,60.8,257.5,64.1,253.4,64.1"/>
	<path class="st0" d="M147.5,76.7c-4.1,0-7.4-3.3-7.4-7.4c0-4.1,3.3-7.4,7.4-7.4c4.1,0,7.4,3.3,7.4,7.4
		C154.9,73.4,151.6,76.7,147.5,76.7"/>
	<path class="st0" d="M143.6,95.9c-4.1,0-7.4-3.3-7.4-7.4c0-4.1,3.3-7.4,7.4-7.4c4.1,0,7.4,3.3,7.4,7.4
		C151,92.6,147.7,95.9,143.6,95.9"/>
	<path class="st0" d="M182.8,95.9c-4.1,0-7.4-3.3-7.4-7.4c0-4.1,3.3-7.4,7.4-7.4c4.1,0,7.4,3.3,7.4,7.4
		C190.2,92.6,186.9,95.9,182.8,95.9"/>
	<path class="st0" d="M192,38.8c-4.1,0-7.4-3.3-7.4-7.4c0-4.1,3.3-7.4,7.4-7.4c4.1,0,7.4,3.3,7.4,7.4
		C199.5,35.5,196.1,38.8,192,38.8"/>
	<path class="st0" d="M153.1,57.8c-4.1,0-7.4-3.3-7.4-7.4c0-4.1,3.3-7.4,7.4-7.4c4.1,0,7.4,3.3,7.4,7.4
		C160.5,54.5,157.2,57.8,153.1,57.8"/>
	<path class="st0" d="M172.5,48.7c-4.1,0-7.4-3.3-7.4-7.4c0-4.1,3.3-7.4,7.4-7.4c4.1,0,7.4,3.3,7.4,7.4
		C180,45.3,176.6,48.7,172.5,48.7"/>
	<path class="st0" d="M189,57.8c-4.1,0-7.4-3.3-7.4-7.4c0-4.1,3.3-7.4,7.4-7.4c4.1,0,7.4,3.3,7.4,7.4
		C196.5,54.5,193.1,57.8,189,57.8"/>
	<path class="st0" d="M185.4,76.7c-4.1,0-7.4-3.3-7.4-7.4c0-4.1,3.3-7.4,7.4-7.4c4.1,0,7.4,3.3,7.4,7.4
		C192.9,73.4,189.5,76.7,185.4,76.7"/>
	<path class="st0" d="M166.6,76.7c-4.1,0-7.4-3.3-7.4-7.4c0-4.1,3.3-7.4,7.4-7.4c4.1,0,7.4,3.3,7.4,7.4
		C174,73.4,170.7,76.7,166.6,76.7"/>
	<path class="st0" d="M70.5,44.2c-0.3,0-0.6-0.1-0.8-0.3c-3.5-3.9-5.3-8.3-5.3-12.6c0-4.3,1.8-8.7,5.3-12.6c0.2-0.2,0.5-0.3,0.8-0.3
		c0.3,0,0.6,0.1,0.8,0.3l2,2c0.3,0.3,0.3,0.7,0,1c-2.7,3-4.2,6.5-4.2,9.7c0,3.3,1.4,6.6,4.2,9.7c0.3,0.3,0.3,0.7,0,1l-2,2
		C71.1,44,70.9,44.2,70.5,44.2"/>
	<path class="st0" d="M61.9,53.7c-0.3,0-0.6-0.1-0.8-0.3c-6.3-6.4-9.9-14.5-9.9-22.2c0-7.7,3.6-15.8,9.9-22.2
		c0.2-0.2,0.5-0.3,0.8-0.3c0.3,0,0.6,0.1,0.8,0.3l2.7,2.6c0.2,0.2,0.2,0.4,0.2,0.5c0,0.2-0.1,0.4-0.2,0.5C60,18,57,24.8,57,31.2
		c0,6.4,3.1,13.2,8.4,18.6c0.2,0.2,0.2,0.3,0.2,0.5c0,0.1,0,0.3-0.2,0.5l-2.7,2.6C62.5,53.6,62.2,53.7,61.9,53.7"/>
	<path class="st0" d="M25.1,95.6c-0.2,0-0.4,0-0.6-0.1l-17-4.2c-0.8-0.2-1.4-0.7-1.7-1.4c-0.3-0.7-0.3-1.5,0.1-2.2l19.4-35.1
		c0,0-22.6,2-22.6,2c-1.2,0-2.1-0.6-2.5-1.4c-0.4-1-0.2-2.1,0.5-2.8C6,45.3,52,0.5,52.2,0.3C52.4,0.1,52.7,0,53,0
		c0.3,0,0.6,0.1,0.8,0.3l2.7,2.6c0.2,0.2,0.2,0.4,0.2,0.5c0,0.1,0,0.3-0.2,0.5c-7.8,7.8-12.1,17.4-12.1,27.2
		c0,9.8,4.3,19.4,12.1,27.2c0.2,0.2,0.2,0.4,0.2,0.5c0,0.1,0,0.3-0.2,0.5l-2.8,2.6c-0.2,0.2-0.5,0.3-0.8,0.3c-0.3,0-0.6-0.1-0.8-0.3
		c-8.8-8.8-13.6-19.8-13.6-30.9c0-2.8,0.3-5.6,0.9-8.3l0.9-4.2L9.3,49c0,0,20.3-1.8,20.3-1.8c1,0,1.8,0.4,2.3,1.1
		c0.5,0.8,0.5,1.8,0.1,2.6L11.9,87.2l13.8,3.4c0.6,0.2,1.2,0.6,1.5,1.1c0.3,0.6,0.4,1.2,0.3,1.9C27.2,94.8,26.2,95.6,25.1,95.6"/>
</g>
</svg>
