<svg width="150" height="30" viewBox="0 0 150 30" fill="none" xmlns="http://www.w3.org/2000/svg">
<path d="M28.854 11.2191L18.8766 1.4856C17.8976 0.534201 16.5718 0 15.1897 0C13.8077 0 12.4819 0.534201 11.5029 1.4856L1.52547 11.2191C0.548648 12.1733 0 13.4666 0 14.8149C0 16.1633 0.548648 17.4565 1.52547 18.4107L11.5029 28.1416C12.4812 29.0943 13.8072 29.6294 15.1897 29.6294C16.5723 29.6294 17.8983 29.0943 18.8766 28.1416L20.9698 26.1001L10.0748 15.4716C9.98702 15.3853 9.91779 15.2827 9.87117 15.1699C9.82455 15.0572 9.80148 14.9365 9.80331 14.8149C9.80173 14.693 9.8249 14.572 9.87149 14.4588C9.91809 14.3456 9.98719 14.2426 10.0748 14.1556L19.0477 5.41767L26.921 13.0965C27.1528 13.3224 27.3367 13.5907 27.4622 13.8861C27.5876 14.1814 27.6522 14.4979 27.6522 14.8176C27.6522 15.1372 27.5876 15.4538 27.4622 15.7491C27.3367 16.0444 27.1528 16.3127 26.921 16.5387L22.9029 20.4628L24.8251 22.3401L28.854 18.4107C29.8308 17.4565 30.3795 16.1633 30.3795 14.8149C30.3795 13.4666 29.8308 12.1733 28.854 11.2191ZM8.14449 12.2809C7.4558 12.9532 7.06895 13.8646 7.06895 14.8149C7.06895 15.7652 7.4558 16.6767 8.14449 17.3489L17.1228 26.1001L16.9517 26.2643C16.72 26.4903 16.4449 26.6697 16.1421 26.7921C15.8393 26.9144 15.5148 26.9774 15.187 26.9774C14.8593 26.9774 14.5347 26.9144 14.2319 26.7921C13.9291 26.6697 13.654 26.4903 13.4223 26.2643L3.45036 16.5334C3.21854 16.3074 3.03464 16.0391 2.90918 15.7438C2.78371 15.4485 2.71913 15.1319 2.71913 14.8123C2.71913 14.4926 2.78371 14.1761 2.90918 13.8808C3.03464 13.5854 3.21854 13.3171 3.45036 13.0912L13.4278 3.36293C13.6595 3.13684 13.9346 2.95748 14.2374 2.83511C14.5402 2.71275 14.8647 2.64976 15.1925 2.64976C15.5202 2.64976 15.8448 2.71275 16.1476 2.83511C16.4504 2.95748 16.7255 3.13684 16.9572 3.36293L17.1282 3.52975L8.14449 12.2809Z" fill="white"/>
<path d="M44.2828 11.2164L34.3054 1.48814C33.3263 0.535934 31.9999 0.0012207 30.6172 0.0012207C29.2344 0.0012207 27.9081 0.535934 26.9289 1.48814L24.8167 3.54818L35.6928 14.1555C35.8687 14.3318 35.9663 14.5688 35.9643 14.8148C35.9655 14.9363 35.9421 15.0568 35.8955 15.1695C35.849 15.2822 35.7801 15.3848 35.6928 15.4715L26.7335 24.2094L18.8602 16.5306C18.6283 16.3046 18.4444 16.0363 18.319 15.741C18.1935 15.4457 18.1289 15.1292 18.1289 14.8095C18.1289 14.4899 18.1935 14.1733 18.319 13.878C18.4444 13.5827 18.6283 13.3144 18.8602 13.0884L22.9054 9.16693L20.9805 7.2896L16.9543 11.2164C15.9779 12.1713 15.4297 13.4649 15.4297 14.8135C15.4297 16.1621 15.9779 17.4556 16.9543 18.4106L26.9289 28.1415C27.9078 29.0943 29.2342 29.6295 30.6172 29.6295C32.0002 29.6295 33.3266 29.0943 34.3054 28.1415L44.2828 18.4106C45.2591 17.4556 45.8074 16.1621 45.8074 14.8135C45.8074 13.4649 45.2591 12.1713 44.2828 11.2164ZM42.3525 16.5333L32.3805 26.2642C32.1488 26.4902 31.8737 26.6696 31.5709 26.792C31.2681 26.9143 30.9436 26.9773 30.6158 26.9773C30.2881 26.9773 29.9635 26.9143 29.6607 26.792C29.3579 26.6696 29.0828 26.4902 28.8511 26.2642L28.6611 26.0788L37.6204 17.3409C38.3091 16.6686 38.6959 15.7572 38.6959 14.8069C38.6959 13.8566 38.3091 12.9451 37.6204 12.2729L28.6611 3.53494L28.8511 3.35223C29.0823 3.12519 29.3572 2.94499 29.6601 2.82203C29.9629 2.69906 30.2878 2.63575 30.6158 2.63575C30.9439 2.63575 31.2687 2.69906 31.5716 2.82203C31.8745 2.94499 32.1494 3.12519 32.3805 3.35223L42.3525 13.0937C42.5843 13.3197 42.7682 13.588 42.8937 13.8833C43.0192 14.1786 43.0837 14.4952 43.0837 14.8148C43.0837 15.1345 43.0192 15.451 42.8937 15.7463C42.7682 16.0416 42.5843 16.3099 42.3525 16.5359V16.5333Z" fill="white"/>
<path d="M51.9121 1.37158H54.4777V14.7909H51.9121V1.37158Z" fill="white"/>
<path d="M73.4496 1.37158V14.7909H71.3374L63.7165 5.70083V14.7909H61.1699V1.37158H63.2821L70.903 10.4511V1.37158H73.4496Z" fill="white"/>
<path d="M82.6848 3.45809V7.53844H89.3581V9.65673H82.6848V14.7909H80.1191V1.37158H90.2078V3.45809H82.6848Z" fill="white"/>
<path d="M95.6543 1.37158H98.2199V14.7909H95.6543V1.37158Z" fill="white"/>
<path d="M117.192 1.37158V14.7909H115.08L107.459 5.70083V14.7909H104.912V1.37158H107.024L114.645 10.4511V1.37158H117.192Z" fill="white"/>
<path d="M134.229 12.6912V14.7909H123.863V1.37158H133.952V3.45809H126.432V6.94532H133.102V8.99477H126.432V12.7018L134.229 12.6912Z" fill="white"/>
<path d="M142.854 3.47937H138.273V1.36108H149.999V3.47937H145.419V14.791H142.854V3.47937Z" fill="white"/>
<path d="M57.7249 21.5881L58.7946 24.0586L59.3539 25.311L59.7068 26.5635H59.7991L60.0896 25.274L61.3358 21.5908H62.4435L60.0163 28.2369H59.381L57.5213 24.0321L57.1928 22.8273L56.81 24.0586L55.0181 28.2475H54.4073L51.877 21.6014H53.1475L54.5702 25.2713L54.8145 26.5741H54.9285L55.2842 25.2501L56.8236 21.5908L57.7249 21.5881Z" fill="white"/>
<path d="M66.207 20.0391C66.2077 19.9429 66.2282 19.8478 66.2674 19.7596C66.3066 19.6713 66.3636 19.5916 66.4351 19.5254C66.5128 19.4486 66.606 19.3885 66.7088 19.3488C66.8117 19.3091 66.9219 19.2908 67.0324 19.295C67.1448 19.2914 67.2569 19.3099 67.3619 19.3495C67.4669 19.389 67.5626 19.4489 67.6432 19.5254C67.718 19.5899 67.778 19.6689 67.8197 19.7574C67.8613 19.8458 67.8835 19.9418 67.8849 20.0391C67.884 20.1345 67.8619 20.2287 67.8202 20.3151C67.7785 20.4015 67.7181 20.478 67.6432 20.5395C67.4766 20.687 67.2573 20.7649 67.0324 20.7566C66.923 20.7615 66.8137 20.7447 66.711 20.7074C66.6084 20.6701 66.5146 20.613 66.4351 20.5395C66.3633 20.4763 66.306 20.3991 66.2667 20.3129C66.2274 20.2267 66.2071 20.1334 66.207 20.0391ZM66.4487 21.5881H67.6188V28.0992H66.4487V21.5881Z" fill="white"/>
<path d="M76.1727 22.6685C76.0288 22.6315 75.9012 22.6023 75.7546 22.5732C75.629 22.5456 75.5006 22.5314 75.3718 22.5309C74.9917 22.5082 74.617 22.6275 74.3239 22.8645C74.0757 23.0846 73.9119 23.3807 73.8596 23.7039V28.0993H72.6895V21.5882H73.5039L73.732 22.4567H73.846C74.0141 22.1621 74.2457 21.9064 74.5248 21.7074C74.8125 21.5223 75.1523 21.4297 75.4967 21.4426C75.6375 21.4442 75.7781 21.4548 75.9175 21.4744C76.0814 21.496 76.2431 21.5315 76.4008 21.5803L76.1727 22.6685Z" fill="white"/>
<path d="M85.4929 27.5669C85.1582 27.7999 84.7842 27.9738 84.3879 28.0806C83.921 28.2111 83.4374 28.2753 82.9517 28.2713C82.4544 28.2823 81.9596 28.2005 81.4938 28.0303C81.1049 27.8841 80.7583 27.6478 80.4838 27.3419C80.2111 27.0284 80.0118 26.6606 79.9001 26.2642C79.7666 25.8043 79.7017 25.3281 79.7074 24.8502C79.7074 23.7328 79.9897 22.8794 80.5544 22.2898C81.1191 21.7002 81.9218 21.4071 82.9626 21.4107C83.2968 21.4105 83.63 21.4461 83.9562 21.5166C84.279 21.5822 84.5825 21.718 84.844 21.9138C85.1212 22.1239 85.342 22.3965 85.4875 22.7081C85.6681 23.1265 85.7525 23.5784 85.7345 24.0321C85.7345 24.1644 85.7345 24.318 85.7345 24.4901C85.7345 24.6622 85.7074 24.8344 85.6829 24.9985H80.9047C80.9209 25.7593 81.1074 26.3339 81.4639 26.7223C81.8205 27.1106 82.4259 27.3048 83.2802 27.3048C83.6281 27.3071 83.9734 27.246 84.2983 27.1248C84.5745 27.0323 84.8292 26.8874 85.0476 26.6984L85.4929 27.5669ZM84.616 24.1803C84.6323 23.5184 84.4965 23.0523 84.2033 22.7796C83.8657 22.4905 83.4247 22.343 82.9762 22.3692C82.4711 22.3428 81.9722 22.4878 81.5644 22.7796C81.2169 23.0532 81.0133 23.5201 80.9535 24.1803H84.616Z" fill="white"/>
<path d="M91.5339 26.3754C91.5074 26.6306 91.5769 26.8865 91.7293 27.0956C91.7968 27.1657 91.8791 27.2208 91.9705 27.2569C92.0619 27.293 92.1602 27.3093 92.2587 27.3048C92.3903 27.305 92.5218 27.297 92.6524 27.2809C92.8068 27.2588 92.9593 27.2251 93.1085 27.1803L93.2633 28.025C93.1629 28.0616 93.0605 28.0925 92.9565 28.1176C92.837 28.1468 92.7148 28.1733 92.5872 28.1971C92.4619 28.2234 92.3349 28.2419 92.2072 28.2527C92.0926 28.2648 91.9775 28.271 91.8624 28.2712C91.4703 28.2895 91.0847 28.1692 90.7764 27.9323C90.5049 27.7046 90.3691 27.3259 90.3691 26.7964V19.4194H91.5393L91.5339 26.3754Z" fill="white"/>
<path d="M102.453 27.5669C102.119 27.7999 101.745 27.9738 101.348 28.0806C100.881 28.2112 100.398 28.2755 99.912 28.2713C99.4156 28.2825 98.9216 28.2007 98.4568 28.0303C98.0667 27.8848 97.7191 27.6485 97.4441 27.3419C97.1723 27.0278 96.9732 26.6602 96.8604 26.2642C96.7279 25.8042 96.6639 25.328 96.6704 24.8502C96.6704 23.7328 96.9518 22.8794 97.5147 22.2898C98.0776 21.7002 98.8812 21.4071 99.9256 21.4107C100.259 21.4107 100.591 21.4462 100.917 21.5166C101.251 21.5818 101.565 21.7246 101.832 21.9329C102.098 22.1412 102.31 22.4089 102.448 22.7134C102.628 23.1318 102.713 23.5837 102.695 24.0374C102.695 24.1697 102.695 24.3233 102.695 24.4954C102.695 24.6675 102.668 24.8397 102.643 25.0038H97.8649C97.8812 25.7646 98.0677 26.3392 98.4242 26.7276C98.7808 27.1159 99.3871 27.3101 100.243 27.3101C100.59 27.3126 100.935 27.2515 101.259 27.13C101.535 27.037 101.791 26.8922 102.011 26.7037L102.453 27.5669ZM101.576 24.1803C101.596 23.5184 101.459 23.0515 101.164 22.7796C100.826 22.4905 100.385 22.343 99.9364 22.3692C99.4314 22.3432 98.9327 22.4882 98.5247 22.7796C98.1772 23.0532 97.9744 23.5201 97.9165 24.1803H101.576Z" fill="white"/>
<path d="M110.541 26.2749C110.547 26.128 110.504 25.9834 110.419 25.8618C110.335 25.7444 110.224 25.6467 110.096 25.5758C109.948 25.4907 109.79 25.4223 109.627 25.3719L109.067 25.1972C108.82 25.131 108.573 25.0595 108.323 24.9801C108.083 24.9059 107.855 24.797 107.647 24.657C107.425 24.5086 107.246 24.3068 107.127 24.0712C107.008 23.8356 106.954 23.5741 106.969 23.3119C106.948 23.044 106.99 22.7751 107.093 22.5258C107.195 22.2765 107.355 22.0535 107.56 21.8741C108.041 21.5363 108.628 21.3724 109.219 21.4107C109.677 21.4009 110.133 21.4507 110.577 21.559C110.902 21.645 111.22 21.753 111.53 21.8821L111.258 22.8485C110.993 22.7277 110.721 22.6224 110.444 22.5334C110.105 22.4265 109.751 22.3737 109.396 22.3772C109.073 22.3556 108.751 22.4245 108.467 22.5758C108.357 22.6603 108.272 22.7709 108.218 22.8971C108.165 23.0232 108.146 23.1606 108.163 23.296C108.159 23.4227 108.199 23.547 108.277 23.6482C108.361 23.7498 108.464 23.8343 108.581 23.8971C108.723 23.9737 108.872 24.0359 109.026 24.0824C109.198 24.138 109.374 24.1883 109.569 24.2387C109.825 24.3048 110.077 24.3816 110.332 24.4664C110.581 24.5506 110.815 24.6683 111.03 24.8159C111.242 24.9593 111.419 25.1475 111.546 25.3666C111.687 25.6252 111.756 25.9158 111.744 26.2087C111.754 26.4878 111.703 26.7659 111.593 27.024C111.484 27.2821 111.318 27.5142 111.109 27.7047C110.682 28.0878 110.048 28.2793 109.208 28.2793C108.731 28.2869 108.254 28.2335 107.791 28.1204C107.442 28.0315 107.103 27.9063 106.781 27.7471L107.11 26.7541C107.405 26.9021 107.712 27.027 108.027 27.1275C108.391 27.25 108.772 27.3126 109.157 27.3128C109.511 27.3268 109.864 27.2521 110.18 27.0957C110.313 27.0057 110.418 26.881 110.482 26.7358C110.546 26.5907 110.566 26.4309 110.541 26.2749Z" fill="white"/>
<path d="M119.426 26.2748C119.432 26.1282 119.391 25.9835 119.307 25.8617C119.22 25.7448 119.109 25.6473 118.981 25.5757C118.833 25.4902 118.676 25.4217 118.511 25.3719C118.335 25.3136 118.148 25.2554 117.952 25.1971C117.708 25.1309 117.458 25.0594 117.208 24.98C116.968 24.9064 116.741 24.7974 116.535 24.6569C116.313 24.5081 116.134 24.3064 116.015 24.0709C115.895 23.8354 115.84 23.5741 115.853 23.3118C115.833 23.044 115.875 22.775 115.978 22.5257C116.08 22.2764 116.24 22.0534 116.445 21.874C116.925 21.5374 117.509 21.3736 118.099 21.4107C118.556 21.4012 119.012 21.451 119.456 21.5589C119.781 21.6454 120.099 21.7533 120.409 21.882L120.138 22.8485C119.873 22.7276 119.601 22.6224 119.323 22.5334C118.984 22.4264 118.629 22.3736 118.272 22.3771C117.951 22.3558 117.63 22.4247 117.347 22.5757C117.233 22.6562 117.142 22.7641 117.083 22.8889C117.025 23.0138 117.001 23.1512 117.013 23.288C117.008 23.4147 117.049 23.539 117.127 23.6402C117.212 23.7412 117.316 23.8256 117.434 23.8891C117.575 23.9662 117.724 24.0283 117.879 24.0744C118.047 24.13 118.226 24.1803 118.422 24.2306C118.677 24.2968 118.932 24.3736 119.185 24.4584C119.434 24.5426 119.669 24.6603 119.885 24.8079C120.097 24.952 120.273 25.1401 120.401 25.3586C120.54 25.6179 120.608 25.9081 120.596 26.2006C120.607 26.4798 120.555 26.7579 120.445 27.016C120.336 27.2741 120.171 27.5062 119.961 27.6967C119.538 28.0797 118.904 28.2713 118.061 28.2713C117.582 28.2787 117.105 28.2253 116.641 28.1124C116.291 28.0235 115.953 27.8983 115.631 27.739L115.962 26.7461C116.256 26.8941 116.562 27.019 116.877 27.1194C117.241 27.2422 117.624 27.3049 118.009 27.3048C118.364 27.3188 118.716 27.244 119.033 27.0877C119.17 27.0021 119.28 26.8804 119.35 26.7365C119.419 26.5927 119.446 26.4327 119.426 26.2748Z" fill="white"/>
</svg>
