<svg viewBox="0 0 160 30" version="1.1" xmlns="http://www.w3.org/2000/svg" xmlns:xlink="http://www.w3.org/1999/xlink">
    <g id="Symbols" stroke="none" stroke-width="1" fill="none" fill-rule="evenodd">
        <g id="footer-/-footer-desktop" transform="translate(-199.000000, -54.000000)" fill-rule="nonzero">
            <g id="Footer">
                <g id="LOGO" transform="translate(199.000000, 54.000000)">
                    <path d="M70.3845755,25.1912624 L70.3845755,4.3471991 C71.434663,4.08882659 72.11933,3.12668018 71.9826751,2.10142739 C71.8460202,1.07617459 70.9306795,0.307692308 69.8461538,0.307692308 C68.7616282,0.307692308 67.8462875,1.07617459 67.7096326,2.10142739 C67.5729777,3.12668018 68.2576447,4.08882659 69.3077322,4.3471991 L69.3077322,25.1912624 C68.2576447,25.4496349 67.5729777,26.4117814 67.7096326,27.4370342 C67.8462875,28.462287 68.7616282,29.2307692 69.8461538,29.2307692 C70.9306795,29.2307692 71.8460202,28.462287 71.9826751,27.4370342 C72.11933,26.4117814 71.434663,25.4496349 70.3845755,25.1912624 Z" id="Path" fill="#A70230"></path>
                    <path d="M5.45083598,12.862294 L17.7426317,12.862294 C18.2806313,12.8727497 18.8013048,12.6717474 19.1930004,12.3023894 C19.577886,11.9649233 19.7970348,11.4764949 19.7933709,10.9643121 C19.7918073,10.4523348 19.5736586,9.96498568 19.1930004,9.62307154 C18.8059319,9.24467442 18.2835504,9.03731606 17.7426317,9.04735035 L4.19953749,9.04735035 L4.19953749,22.3996533 C4.20598347,22.9196508 3.98140422,23.4156566 3.58652762,23.7535471 C3.18036136,24.1213218 2.64892508,24.3194136 2.10140063,24.3071251 C1.5538217,24.3197374 1.02226958,24.1216024 0.61627363,23.7535471 C0.220220607,23.4162584 -0.00555585679,22.9201656 0.000103919509,22.3996533 L0.000103919509,9.04735035 C-0.00507449964,8.01351256 0.443100197,7.02945556 1.22612365,6.3553793 C2.03473374,5.60992298 3.10057607,5.20738508 4.19953749,5.23240666 L17.7426317,5.23240666 C19.377549,5.19518241 20.9632268,5.793864 22.1664143,6.90263076 C23.3309478,7.91265172 24,9.37912544 24,10.9216075 C24,12.4640896 23.3309478,13.9305633 22.1664143,14.9405843 C20.9565153,16.0462943 19.3808093,16.6648725 17.7426317,16.6772377 L9.6471097,16.6772377 C8.55146585,16.7006889 7.48889093,16.3007959 6.68001555,15.5605917 C5.89235842,14.8870097 5.44242325,13.8993111 5.45083598,12.862294 Z" id="Path" fill="#000000"></path>
                    <path d="M31.9378293,5.23185438 L46.7797682,5.23185438 C47.95665,5.21185006 49.1040384,5.60089957 50.0263435,6.33268341 C50.9065463,6.99232065 51.502324,7.96293452 51.6923077,9.04679635 L31.9378293,9.04679635 L31.9378293,12.8617383 L46.337197,12.8617383 C46.3455329,13.8980578 45.8967566,14.8853205 45.1106428,15.5600348 C44.304225,16.3006971 43.2429215,16.7007895 42.1485774,16.6766803 L31.9378293,16.6766803 L31.9378293,20.4916223 L51.6923077,20.4916223 C51.5048723,21.5789622 50.9073835,22.552785 50.0231823,23.2120618 C49.1001158,23.939492 47.9545581,24.3260648 46.7797682,24.3065642 L31.9378293,24.3065642 C30.8387846,24.3317502 29.7719077,23.93438 28.9567966,23.1962453 C28.162194,22.5216901 27.7005617,21.5343019 27.6923077,20.4916223 L27.6923077,9.04679635 C27.7032292,8.00652377 28.1645376,7.02213638 28.9567966,6.34849992 C29.7702494,5.60694209 30.8377028,5.2070917 31.9378293,5.23185438 Z" id="Path" fill="#000000"></path>
                    <path d="M56.9215714,5.23165627 C57.4842566,5.21978583 58.0299216,5.42038407 58.4448048,5.79162978 C58.8511593,6.13021363 59.0826519,6.6273613 59.0767846,7.1488537 L59.0767846,22.4010134 C59.0833959,22.9210748 58.8530543,23.4171416 58.4480457,23.7550736 C57.5715901,24.4918985 56.2747936,24.4918985 55.3983381,23.7550736 C54.9933295,23.4171416 54.7629878,22.9210748 54.7695992,22.4010134 L54.7695992,7.1488537 C54.7588686,6.6304279 54.9830073,6.13379213 55.3821334,5.79162978 C55.8010858,5.41654003 56.3533305,5.21565996 56.9215714,5.23165627 Z" id="Path" fill="#000000"></path>
                    <path d="M93.8281421,9.22728022 L93.8281421,22.4004183 C93.8347336,22.9204609 93.6050826,23.4165098 93.2012883,23.7544296 C92.3290225,24.4921132 91.0362214,24.4921132 90.1639556,23.7544296 C89.7601613,23.4165098 89.5305102,22.9204609 89.5371018,22.4004183 L89.5371018,9.22728022 L79.3846557,9.22728022 L79.3846557,9.04695628 C79.3796551,8.01172993 79.8406354,7.02689985 80.6448256,6.35475155 C81.4704332,5.6113334 82.557481,5.20896356 83.6789271,5.23168142 L99.7024728,5.23168142 C100.821642,5.21093052 101.905951,5.61314338 102.730112,6.35475155 C103.538998,7.02429518 104.003894,8.00990785 103.999975,9.04695628 L103.999975,9.2304438 L93.8281421,9.22728022 Z" id="Path" fill="#A70230"></path>
                    <path d="M111.937829,5.23188227 L126.773446,5.23188227 C127.950369,5.2116151 129.097843,5.60069268 130.020021,6.33270806 C130.902356,6.99144563 131.500422,7.9621005 131.692308,9.04681301 L111.937829,9.04681301 L111.937829,12.8617438 L126.337197,12.8617438 C126.3451,13.897968 125.896403,14.8850539 125.110643,15.5600323 C124.30405,16.300408 123.242865,16.7004545 122.148577,16.6766745 L111.937829,16.6766745 L111.937829,20.4916053 L131.692308,20.4916053 C131.504564,21.5788258 130.907141,22.5525398 130.023182,23.2120368 C129.099396,23.9403877 127.952517,24.3270285 126.776607,24.306536 L111.937829,24.306536 C110.83873,24.3320461 109.771737,23.9346338 108.956797,23.1962203 C108.161851,22.5219294 107.700141,21.5343772 107.692308,20.4916053 L107.692308,9.04681301 C107.703229,8.00654349 108.164538,7.022159 108.956797,6.34852452 C109.770077,5.60668604 110.837647,5.20679283 111.937829,5.23188227 Z" id="Path" fill="#A70230"></path>
                    <path d="M137.536289,5.23124115 C138.097964,5.21969965 138.642585,5.42023673 139.056944,5.79116803 C139.46104,6.13059233 139.690834,6.62743537 139.684618,7.14827894 L139.684618,20.4916212 L159.99992,20.4916212 C160.007013,21.530409 159.542474,22.5187596 158.731629,23.1900259 C157.904682,23.9281738 156.819545,24.3278836 155.700026,24.3067162 L139.684618,24.3067162 C138.562764,24.3301682 137.47477,23.9302594 136.646544,23.1900259 C135.838475,22.5172859 135.376469,21.5292858 135.384724,20.4916212 L135.384724,7.14827894 C135.380936,6.63064977 135.610548,6.13767124 136.012399,5.80065831 C136.426064,5.42551299 136.972168,5.22145547 137.536289,5.23124115 Z" id="Path" fill="#A70230"></path>
                </g>
            </g>
        </g>
    </g>
</svg>
