<svg width="254" height="32" viewBox="0 0 254 32" fill="none" xmlns="http://www.w3.org/2000/svg"><path fill-rule="evenodd" clip-rule="evenodd" d="M41.8761 27.4885H46.4527V32H41.8761V27.4885ZM41.8761 4.52314V0H46.4527V4.52314H41.8761ZM22.4695 8.41676C19.4657 8.41676 17.0413 10.8182 17.0413 13.7676V18.2324C17.0413 21.1818 19.4657 23.5832 22.4695 23.5832H27.5074V32H18.9572V25.565C18.9572 22.604 16.521 20.2142 13.529 20.2142H8.49111V11.7858H13.529C16.521 11.7858 18.9572 9.39598 18.9572 6.43496V0H27.5074V8.41676H22.4695ZM35.9867 18.2557H31.41V13.7443H35.9867V18.2557ZM4.58851 32H0V27.4885H4.58851V32ZM4.58851 4.52314H0V0H4.58851V4.52314Z" fill="#9FCD4E"/><path fill-rule="evenodd" clip-rule="evenodd" d="M80.4173 23.0585V26.1011H62.761C62.1343 26.1011 61.543 25.9729 60.999 25.7397C60.4431 25.5066 59.9583 25.1918 59.5444 24.7838C59.1304 24.3758 58.8111 23.8978 58.5746 23.3499C58.3263 22.8137 58.208 22.2308 58.208 21.6129V9.09274C58.208 8.47489 58.3263 7.89199 58.5746 7.35574C58.8111 6.80784 59.1304 6.3299 59.5444 5.92189C59.9583 5.51387 60.4431 5.19911 60.999 4.96596C61.543 4.73281 62.1343 4.61621 62.761 4.61621H80.3464V7.64718H62.761C62.359 7.64718 62.016 7.78707 61.7322 8.07851C61.4365 8.35829 61.2946 8.69639 61.2946 9.09274V21.6129C61.2946 22.0093 61.4365 22.3474 61.7322 22.6271C62.016 22.9186 62.359 23.0585 62.761 23.0585H80.4173Z" fill="#9FCD4E"/><path fill-rule="evenodd" clip-rule="evenodd" d="M83.894 4.61621V26.1011H88.1041L102.615 7.88035V26.1011H105.689V4.61621H101.479L86.9806 22.8253V4.61621H83.894Z" fill="#9FCD4E"/><path fill-rule="evenodd" clip-rule="evenodd" d="M114.464 4.61621H125.06V7.64718H114.5C114.488 7.64718 114.476 7.64718 114.464 7.64718C114.086 7.65884 113.754 7.79872 113.471 8.07851C113.187 8.35829 113.033 8.69639 113.033 9.09274V26.1011H109.923V9.09274C109.923 8.47489 110.041 7.89199 110.278 7.35574C110.514 6.80784 110.845 6.3299 111.259 5.92189C111.661 5.51387 112.146 5.19911 112.702 4.96596C113.246 4.73281 113.837 4.61621 114.464 4.61621Z" fill="#9FCD4E"/><path fill-rule="evenodd" clip-rule="evenodd" d="M172.601 4.61621C173.228 4.61621 173.819 4.73281 174.387 4.96596C174.943 5.19911 175.44 5.51387 175.842 5.92189C176.256 6.3299 176.587 6.80784 176.823 7.35574C177.06 7.89199 177.178 8.47489 177.178 9.09274V26.1011H159.522C158.895 26.1011 158.304 25.9729 157.76 25.7397C157.204 25.5066 156.719 25.1918 156.305 24.7838C155.891 24.3758 155.572 23.8978 155.335 23.3499C155.087 22.8137 154.969 22.2308 154.969 21.6129V13.8373H174.068V9.09274C174.068 8.69639 173.926 8.35829 173.654 8.07851C173.37 7.78707 173.027 7.64718 172.601 7.64718H154.969V4.61621H172.601ZM174.068 16.8683H158.055V21.6129C158.055 22.0093 158.197 22.3474 158.481 22.6271C158.777 22.9186 159.12 23.0585 159.522 23.0585H174.068V16.8683Z" fill="#9FCD4E"/><path fill-rule="evenodd" clip-rule="evenodd" d="M131.624 16.8683V26.1011H128.538V4.61621H131.624V13.8373H147.66V4.61621H150.747V26.1011H147.66V16.8683H131.624Z" fill="#9FCD4E"/><path fill-rule="evenodd" clip-rule="evenodd" d="M202.616 4.61621V7.64718H193.19V26.1011H190.092V7.64718H180.655V4.61621H202.616Z" fill="#9FCD4E"/><path fill-rule="evenodd" clip-rule="evenodd" d="M223.465 4.61621C224.092 4.61621 224.683 4.73281 225.251 4.96596C225.818 5.19911 226.303 5.51387 226.717 5.92189C227.131 6.3299 227.45 6.80784 227.687 7.35574C227.935 7.89199 228.054 8.47489 228.054 9.09274V16.8683H208.919V21.6129C208.919 22.0093 209.061 22.3474 209.357 22.6271C209.64 22.9186 209.983 23.0585 210.385 23.0585H228.054V26.1011H210.385C209.759 26.1011 209.167 25.9729 208.623 25.7397C208.068 25.5066 207.583 25.1918 207.169 24.7838C206.767 24.3758 206.436 23.8978 206.199 23.3499C205.963 22.8137 205.844 22.2308 205.844 21.6129V9.09274C205.844 8.47489 205.963 7.89199 206.199 7.35574C206.436 6.80784 206.767 6.3299 207.169 5.92189C207.583 5.51387 208.068 5.19911 208.623 4.96596C209.167 4.73281 209.759 4.61621 210.385 4.61621H223.465ZM224.931 13.8373V9.09274C224.931 8.69639 224.79 8.35829 224.518 8.07851C224.246 7.78707 223.891 7.64718 223.465 7.64718H210.385C209.983 7.64718 209.64 7.78707 209.357 8.07851C209.061 8.35829 208.919 8.69639 208.919 9.09274V13.8373H224.931Z" fill="#9FCD4E"/><path fill-rule="evenodd" clip-rule="evenodd" d="M254 4.61621L244.113 15.3528L253.964 26.1011H249.932L241.37 16.8683H235.362V26.1011H232.275V4.61621H235.362V13.8373H241.37L249.932 4.61621H254Z" fill="#9FCD4E"/></svg>