<svg width="3145" height="1097" viewBox="0 0 3145 1097" fill="none" xmlns="http://www.w3.org/2000/svg">
<path fill-rule="evenodd" clip-rule="evenodd" d="M1258.29 262.84L1421.68 27.1338H866.149L1260.19 595.688L1490.26 263.019L1258.29 262.84Z" fill="#231F20"/>
<path fill-rule="evenodd" clip-rule="evenodd" d="M1474.66 905.148L2083.28 27.1342H1654.3L1490.26 263.02L1719.61 263.016L1374.59 760.756L1474.66 905.148Z" fill="#00ADEF"/>
<path fill-rule="evenodd" clip-rule="evenodd" d="M744.753 661.016C762.659 661.016 779.617 654.005 792.275 641.361C804.935 628.711 811.958 611.781 811.958 593.896C811.958 576.012 804.935 559.076 792.275 546.433C779.617 533.788 762.659 526.775 744.753 526.775C564.97 526.775 428.899 526.782 248.871 526.775C182.709 526.773 119.958 500.297 73.2447 453.638C26.2226 406.67 0 343.503 0 277.072C0 210.647 26.2226 147.474 73.2447 100.509C119.945 53.8621 182.663 27.3652 248.807 27.3652L866.146 27.142L739.807 209.894L279.693 209.951C261.787 209.953 244.83 216.962 232.168 229.605C219.509 242.248 212.488 259.185 212.488 277.07C212.488 294.955 219.509 311.887 232.168 324.533C244.83 337.184 261.797 344.177 279.702 344.19L768.199 344.184C834.342 344.184 897.061 370.684 943.758 417.332C990.784 464.295 1017 527.463 1017 593.894C1017 660.322 990.784 723.496 943.758 770.46C897.076 817.094 834.326 843.081 768.317 843.599L766.978 843.609L4.11894 843.606L131.059 660.477C350.093 660.7 525.836 661.016 744.754 661.016" fill="#231F20"/>
<path fill-rule="evenodd" clip-rule="evenodd" d="M2914.78 660.369H2318.18C2213.42 660.38 2127.64 540.589 2127.64 435.487C2127.64 330.382 2210.38 209.885 2318.08 209.885H2765.79L2892.47 27.1344L2323.03 27.3849C2215.05 28.0913 2112.63 70.6459 2036.27 146.927C1959.36 223.728 1916.56 326.854 1916.56 435.496C1916.56 544.134 1959.36 647.262 2036.27 724.061C2112.6 800.305 2214.95 843.364 2323 843.617H2787.71L2914.78 660.369Z" fill="#231F20"/>
<path fill-rule="evenodd" clip-rule="evenodd" d="M6.04541 1036.63H30.8606V1043.26C30.8606 1049.08 31.0282 1057.1 32.8006 1062.68C33.7287 1065.59 35.2496 1068.36 37.9962 1069.9C40.6827 1071.41 45.2127 1072.07 48.2338 1072.41C58.2822 1073.55 70.0946 1073.29 80.2234 1073.29C86.4939 1073.29 93.9081 1073.12 100.028 1071.67C103.235 1070.91 106.792 1069.58 109.098 1067.12C110.197 1065.96 110.815 1063.38 111.097 1061.86C111.863 1057.74 111.966 1053.1 111.966 1048.91C111.966 1044.97 111.771 1032.61 109.246 1029.38C107.043 1026.57 101.294 1025.76 98.0143 1025.5L49.8155 1021.71C38.8301 1020.84 25.2383 1018.25 17.4663 1009.71C9.70783 1001.18 8.19745 987.512 8.19745 976.492C8.19745 968.996 8.7339 960.596 11.1062 953.442C13.0799 947.488 16.3155 942.297 20.9975 938.108C25.1229 934.417 30.5774 932.407 35.9303 931.308C45.1098 929.421 57.3103 929.512 66.6855 929.512H72.2726C82.7985 929.512 96.702 929.521 106.959 931.939C113.585 933.491 119.724 936.245 124.942 940.659C128.83 943.94 131.27 948.346 132.756 953.158C134.559 959.016 135.065 965.523 135.065 971.628C135.065 973.217 135.042 974.809 135.009 976.398C134.981 977.423 134.953 978.451 134.841 979.481L134.559 982.879H110.035V975.276C110.035 971.372 109.952 966.763 109.119 962.938C108.772 961.355 108.12 959.192 106.935 958.008C104.844 955.922 100.171 954.945 97.3745 954.502C87.9065 953.017 75.863 953.228 66.2606 953.228C60.2345 953.228 43.1903 953.506 38.3895 957.735C33.9734 961.624 33.4473 971.364 33.4473 976.74C33.4473 981.132 33.805 989.307 36.6866 992.93C39.3508 996.284 45.709 997.257 49.6692 997.584L98.8308 1001.66C109.267 1002.53 121.207 1005.29 128.362 1013.55C135.621 1021.93 137.003 1035.29 137.003 1045.91C137.003 1053.46 136.78 1062.53 134.879 1069.87C133.507 1075.19 131.146 1080.13 127.465 1084.24C122.897 1089.35 116.983 1092.53 110.412 1094.3C100.244 1097.03 84.9841 1097 74.4605 1097H66.6897C57.1538 1097 44.5405 1096.94 35.2649 1094.67C29.0873 1093.16 23.4106 1090.46 18.7571 1086.23C14.0231 1082.15 10.9215 1076.83 9.01944 1070.93C6.69074 1063.71 6.04968 1055.53 6.04968 1047.98V1036.63L6.04541 1036.63ZM249.076 1063.8L299.536 931.446H334.406V1094.85H309.804V969.828L262.136 1094.85H235.763L188.096 969.828V1094.85H163.494V931.446H198.141L249.076 1063.8ZM460.83 1054.94H386.97L372.396 1094.85H346.648L407.108 931.446H440.701L501.463 1094.85H475.728L460.83 1054.94ZM624.395 1022.45C627.557 1024.26 630.341 1026.66 632.406 1029.83C636.704 1036.42 637.519 1046.01 637.519 1053.67V1094.85H612.059V1059C612.059 1053.5 611.626 1043.16 607.704 1038.79C603.97 1034.64 594.862 1034.12 589.736 1034.12H538.048V1094.85H513.446V931.446H587.655C599.396 931.446 616.543 932.485 626.184 940.032C635.39 947.239 637.519 959.733 637.519 970.733V994.302C637.519 1001.71 636.255 1009.59 631.851 1015.73C629.797 1018.61 627.262 1020.81 624.395 1022.45ZM713.078 955.375V1094.85H688.258V955.375H638.629V931.446H762.923V955.375H713.078ZM897.933 1063.99L945.307 931.446H971.594L911.731 1094.85H884.202L824.342 931.446H850.706L897.933 1063.99ZM979.305 986.72C979.305 971.866 981.466 953.188 992.842 942.345C1004.32 931.402 1024.28 929.514 1039.34 929.514H1059.03C1073.99 929.514 1094.28 931.276 1105.7 942.162C1117.01 952.932 1119.06 971.997 1119.06 986.72V1039.58C1119.06 1054.43 1116.9 1073.22 1105.48 1084.04C1093.99 1094.92 1074.06 1096.79 1059.03 1096.79H1039.34C1024.31 1096.79 1004.33 1094.93 992.846 1084.03C981.443 1073.21 979.305 1054.42 979.305 1039.58V986.72ZM1168.73 1071.14H1257.25V1094.85H1144.34V931.446H1168.73V1071.14ZM1290.26 955.375V1094.85H1265.44V955.375H1215.81V931.446H1340.11V955.375H1290.26ZM1427.75 1054.94H1353.89L1339.32 1094.85H1313.57L1374.03 931.446H1407.62L1468.38 1094.85H1442.65L1427.75 1054.94ZM1588.86 1033.05H1545.5V1009.77H1614.11V1039.62C1614.11 1054.45 1611.96 1073.22 1600.57 1084.03C1589.1 1094.92 1569.15 1096.79 1554.15 1096.79H1534.31C1519.3 1096.79 1499.35 1094.91 1487.89 1084.03C1476.49 1073.22 1474.35 1054.45 1474.35 1039.62V986.684C1474.35 971.841 1476.52 953.182 1487.88 942.345C1499.35 931.412 1519.27 929.514 1534.31 929.514H1554.15C1568.69 929.514 1586.7 931.278 1598.88 940.008C1610.06 948.016 1614.11 960.216 1614.11 973.596V983.913H1588.86V978.317C1588.86 971.65 1587.78 963.173 1582.1 958.787C1575.6 953.761 1560.93 953.229 1553.11 953.229H1539.36C1532.7 953.229 1523.64 953.285 1517.17 954.905C1513.32 955.876 1509.74 957.517 1506.71 960.102C1504.06 962.358 1502.43 965.302 1501.5 968.627C1499.78 974.713 1499.81 984.653 1499.81 990.974V1035.43C1499.81 1041.74 1499.79 1051.6 1501.5 1057.67C1502.43 1061 1504.06 1063.94 1506.71 1066.2C1509.7 1068.74 1513.19 1070.42 1516.98 1071.4C1523.37 1073.06 1532.77 1073.07 1539.36 1073.07H1553.11C1559.06 1073.07 1567.51 1073.07 1573.3 1071.61C1576.68 1070.76 1579.84 1069.3 1582.51 1067.04C1584.97 1064.97 1586.42 1062.2 1587.28 1059.14C1588.86 1053.53 1588.86 1044.8 1588.86 1038.97L1588.86 1033.05ZM1662.63 955.375V999.041H1752.4V1022.33H1662.63V1071.14H1755.01V1094.85H1638.03V931.446H1755.01V955.375H1662.63ZM1842.99 986.684C1842.99 972.228 1844.87 953.268 1855.54 942.36C1866.14 931.521 1884.4 929.514 1898.76 929.514H1917.02C1930.76 929.514 1949.11 931.105 1959.96 940.547C1970.42 949.647 1972.87 964.563 1972.87 977.71V988.206H1947.62V980.21C1947.62 973.688 1946.88 963.499 1941.62 958.794C1936.03 953.781 1922.78 953.229 1915.73 953.229H1903.66C1897.78 953.229 1889.7 953.284 1884 954.819C1880.56 955.744 1877.45 957.325 1874.84 959.77C1872.31 962.143 1870.73 965.116 1869.82 968.444C1868.16 974.573 1868.23 984.621 1868.23 990.974V1035.39C1868.23 1041.76 1868.18 1051.71 1869.82 1057.85C1870.72 1061.19 1872.3 1064.15 1874.84 1066.53C1877.4 1068.93 1880.39 1070.54 1883.77 1071.49C1889.29 1073.06 1897.93 1073.07 1903.66 1073.07H1915.73C1922.78 1073.07 1936.49 1072.54 1941.96 1067.3C1947.25 1062.24 1947.94 1050.65 1947.94 1043.87C1947.94 1042.41 1947.92 1040.95 1947.89 1039.49C1947.86 1038.56 1947.83 1037.64 1947.75 1036.72L1947.43 1032.73H1972.87V1046.69C1972.87 1059.92 1970.79 1076.24 1960.37 1085.64C1949.68 1095.27 1930.71 1096.78 1917.03 1096.78H1898.77C1884.4 1096.78 1866.16 1094.75 1855.55 1083.9C1844.87 1072.99 1843 1054.04 1843 1039.58V986.681L1842.99 986.684ZM1989.77 986.713C1989.77 971.86 1991.93 953.179 2003.3 942.336C2014.78 931.393 2034.74 929.507 2049.8 929.507H2069.49C2084.45 929.507 2104.74 931.27 2116.17 942.156C2127.47 952.925 2129.53 971.991 2129.53 986.713V1039.57C2129.53 1054.42 2127.37 1073.22 2115.95 1084.03C2104.46 1094.91 2084.52 1096.78 2069.49 1096.78H2049.8C2034.78 1096.78 2014.79 1094.92 2003.31 1084.03C1991.91 1073.21 1989.77 1054.42 1989.77 1039.57V986.713ZM2266.1 1061.14V931.44H2290.7V1094.85H2258.26L2179.41 964.946V1094.85H2154.8V931.44H2187.24L2266.1 1061.14ZM2374.45 955.368V1094.85H2349.63V955.368H2300V931.44H2424.3V955.368H2374.45ZM2544.38 1022.45C2547.54 1024.25 2550.32 1026.65 2552.39 1029.83C2556.68 1036.42 2557.5 1046 2557.5 1053.66V1094.85H2532.04V1058.99C2532.04 1053.49 2531.61 1043.16 2527.68 1038.79C2523.95 1034.63 2514.84 1034.12 2509.72 1034.12H2458.03V1094.85H2433.43V931.44H2507.64C2519.38 931.44 2536.52 932.476 2546.17 940.025C2555.37 947.232 2557.5 959.726 2557.5 970.726V994.295C2557.5 1001.7 2556.24 1009.58 2551.83 1015.73C2549.78 1018.6 2547.24 1020.8 2544.38 1022.45ZM2578.7 986.713C2578.7 971.86 2580.86 953.179 2592.24 942.336C2603.71 931.393 2623.67 929.507 2638.73 929.507H2658.43C2673.38 929.507 2693.67 931.27 2705.1 942.156C2716.4 952.925 2718.46 971.991 2718.46 986.713V1039.57C2718.46 1054.42 2716.3 1073.22 2704.88 1084.03C2693.39 1094.91 2673.45 1096.78 2658.43 1096.78H2638.73C2623.71 1096.78 2603.72 1094.92 2592.24 1084.03C2580.84 1073.21 2578.7 1054.42 2578.7 1039.57V986.713ZM2768.13 1071.13H2856.64V1094.85H2743.74V931.44H2768.13V1071.13ZM395.488 1032.08H452.526L424.085 955.4H423.702L395.488 1032.08ZM538.048 955.368V1010.41H584.182C589.808 1010.41 602.771 1010.09 607.4 1006.39C611.385 1003.2 612.059 996.714 612.059 992.005V973.765C612.059 969.19 611.466 962.401 607.592 959.264C603.134 955.651 589.621 955.368 584.182 955.368H538.048ZM1053.91 953.221H1044.25C1037.67 953.221 1028.28 953.23 1021.9 954.891C1018.11 955.874 1014.62 957.546 1011.63 960.094C1008.89 962.431 1007.27 965.567 1006.31 969.002C1004.58 975.228 1004.55 984.733 1004.55 991.182V1035.39C1004.55 1041.74 1004.57 1051.24 1006.31 1057.38C1007.27 1060.79 1008.91 1063.87 1011.63 1066.19C1014.62 1068.74 1018.11 1070.41 1021.9 1071.39C1028.28 1073.05 1037.67 1073.07 1044.25 1073.07H1053.91C1060.57 1073.07 1069.92 1073.04 1076.37 1071.39C1080.19 1070.41 1083.72 1068.76 1086.74 1066.19C1089.38 1063.94 1090.98 1060.94 1091.91 1057.63C1093.63 1051.55 1093.61 1041.7 1093.61 1035.39V991.004C1093.61 984.543 1093.58 975.024 1091.84 968.787C1090.89 965.356 1089.27 962.212 1086.52 959.881C1083.58 957.368 1080.11 955.773 1076.37 954.823C1070 953.195 1060.49 953.221 1053.91 953.221H1053.91ZM1362.41 1032.08H1419.44L1391.01 955.399H1390.63L1362.41 1032.08ZM2064.37 953.221H2054.71C2048.13 953.221 2038.74 953.23 2032.36 954.891C2028.57 955.874 2025.08 957.546 2022.09 960.094C2019.35 962.431 2017.73 965.567 2016.77 969.002C2015.04 975.228 2015.01 984.733 2015.01 991.182V1035.39C2015.01 1041.74 2015.03 1051.24 2016.77 1057.38C2017.73 1060.79 2019.37 1063.87 2022.09 1066.19C2025.08 1068.74 2028.57 1070.41 2032.36 1071.39C2038.74 1073.05 2048.13 1073.07 2054.71 1073.07H2064.38C2071.03 1073.07 2080.38 1073.04 2086.84 1071.39C2090.66 1070.41 2094.19 1068.76 2097.2 1066.19C2099.84 1063.94 2101.45 1060.94 2102.38 1057.63C2104.09 1051.55 2104.07 1041.7 2104.07 1035.39V991.004C2104.07 984.543 2104.04 975.024 2102.3 968.787C2101.35 965.356 2099.73 962.212 2096.99 959.881C2094.04 957.368 2090.57 955.773 2086.84 954.823C2080.46 953.195 2070.95 953.221 2064.37 953.221ZM2458.03 955.368V1010.41H2504.16C2509.79 1010.41 2522.75 1010.09 2527.38 1006.39C2531.37 1003.2 2532.04 996.714 2532.04 992.005V973.765C2532.04 969.19 2531.44 962.401 2527.57 959.264C2523.11 955.651 2509.6 955.368 2504.16 955.368H2458.03ZM2653.31 953.221H2643.64C2637.06 953.221 2627.67 953.23 2621.29 954.891C2617.5 955.874 2614.01 957.546 2611.02 960.094C2608.28 962.431 2606.66 965.567 2605.7 969.002C2603.97 975.228 2603.94 984.733 2603.94 991.182V1035.39C2603.94 1041.74 2603.97 1051.24 2605.7 1057.38C2606.67 1060.79 2608.3 1063.87 2611.02 1066.19C2614.01 1068.74 2617.5 1070.41 2621.29 1071.39C2627.67 1073.05 2637.06 1073.07 2643.64 1073.07H2653.31C2659.96 1073.07 2669.31 1073.04 2675.77 1071.39C2679.59 1070.41 2683.12 1068.76 2686.13 1066.19C2688.78 1063.94 2690.38 1060.94 2691.31 1057.63C2693.02 1051.55 2693 1041.7 2693 1035.39V991.004C2693 984.543 2692.97 975.024 2691.23 968.787C2690.28 965.356 2688.66 962.212 2685.92 959.881C2682.97 957.368 2679.5 955.773 2675.77 954.823C2669.39 953.195 2659.88 953.221 2653.31 953.221" fill="#00ADEF"/>
<path d="M3027.51 -0.00119019C3059.96 -0.00119019 3089.33 13.1372 3110.59 34.3689C3131.85 55.6043 3145 84.9431 3145 117.346C3145 149.751 3131.85 179.092 3110.59 200.321C3089.33 221.553 3059.96 234.691 3027.51 234.691C2995.07 234.691 2965.69 221.556 2944.43 200.321C2923.17 179.092 2910.02 149.751 2910.02 117.346C2910.02 84.9431 2923.17 55.6043 2944.43 34.3689C2965.69 13.1338 2995.07 -0.00119019 3027.51 -0.00119019ZM2981.71 183.039V55.9184H3038.12C3049.47 55.9184 3058.09 57.0711 3063.99 59.349C3069.88 61.6301 3074.59 65.6526 3078.12 71.4214C3081.65 77.1917 3083.39 83.5854 3083.39 90.568C3083.39 99.5917 3080.46 107.197 3074.62 113.382C3068.79 119.568 3059.78 123.473 3047.58 125.158C3052.05 127.291 3055.42 129.42 3057.74 131.491C3062.65 135.987 3067.31 141.642 3071.66 148.417L3093.67 183.039H3072.64L3055.81 156.585C3050.92 148.92 3046.86 143.091 3043.69 139.039C3040.49 134.983 3037.65 132.172 3035.13 130.545C3032.64 128.948 3030.06 127.824 3027.46 127.174C3025.56 126.789 3022.45 126.579 3018.09 126.579H2998.6V183.039H2981.71ZM2998.6 112.022H3034.75C3042.45 112.022 3048.43 111.223 3052.76 109.626C3057.09 108.057 3060.37 105.513 3062.6 101.99C3064.85 98.4976 3065.97 94.7112 3065.97 90.5987C3065.97 84.5925 3063.81 79.6193 3059.45 75.7433C3055.1 71.8672 3048.23 69.9439 3038.83 69.9439H2998.6V112.022ZM3099.25 45.695C3080.89 27.3595 3055.53 16.0165 3027.51 16.0165C2999.5 16.0165 2974.13 27.3595 2955.77 45.695C2937.41 64.0316 2926.06 89.3675 2926.06 117.346C2926.06 145.326 2937.41 170.662 2955.77 188.994C2974.13 207.33 2999.5 218.674 3027.51 218.674C3055.53 218.674 3080.89 207.33 3099.25 188.994C3117.61 170.662 3128.96 145.326 3128.96 117.346C3128.96 89.3675 3117.61 64.0316 3099.25 45.695Z" fill="#231F20"/>
</svg>
